<svg viewBox="0 0 100 100" height="100" width="100" xmlns="http://www.w3.org/2000/svg">
  
  <g transform="rotate(-10, 50, 50)">
    <rect stroke-width="2" stroke="#000" fill="#ffffff" ry="3" rx="3" height="85" width="80" y="10" x="10"></rect>

    
    <line stroke-width="2" stroke="#000" y2="95" x2="50" y1="10" x1="50"></line>

    
    <line stroke-width="1" stroke="#aaa" y2="25" x2="45" y1="25" x1="15"></line>
    <line stroke-width="1" stroke="#aaa" y2="35" x2="45" y1="35" x1="15"></line>
    <line stroke-width="1" stroke="#aaa" y2="45" x2="45" y1="45" x1="15"></line>
    <line stroke-width="1" stroke="#aaa" y2="55" x2="45" y1="55" x1="15"></line>
    <line stroke-width="1" stroke="#aaa" y2="65" x2="45" y1="65" x1="15"></line>
    <line stroke-width="1" stroke="#aaa" y2="75" x2="45" y1="75" x1="15"></line>

    
    <line stroke-width="1" stroke="#aaa" y2="25" x2="85" y1="25" x1="55"></line>
    <line stroke-width="1" stroke="#aaa" y2="35" x2="85" y1="35" x1="55"></line>
    <line stroke-width="1" stroke="#aaa" y2="45" x2="85" y1="45" x1="55"></line>
    <line stroke-width="1" stroke="#aaa" y2="55" x2="85" y1="55" x1="55"></line>
    <line stroke-width="1" stroke="#aaa" y2="65" x2="85" y1="65" x1="55"></line>
    <line stroke-width="1" stroke="#aaa" y2="75" x2="85" y1="75" x1="55"></line>
  </g>

  
  <rect transform="rotate(-15, 50, 50)" fill="#f4c542" height="5" width="50" y="60" x="25"></rect>
  <polygon fill="#000000" points="76.7,53.2 78,57.9 83,54"></polygon>

  
  <text text-anchor="middle" fill="#e95c31" font-weight="bold" font-size="25" font-family="Arial, sans-serif" y="95" x="75%">MD</text>
</svg>
