<svg viewBox="0 0 100 100" height="100" width="100" xmlns="http://www.w3.org/2000/svg"><g transform="rotate(-10 50 50)"><rect stroke-width="2" stroke="#000" fill="#fff" ry="3" rx="3" height="85" width="80" y="10" x="10"/><path stroke-width="2" stroke="#000" d="M50 10v85"/><path stroke="#aaa" d="M15 25h30M15 35h30M15 45h30M15 55h30M15 65h30M15 75h30m10-50h30M55 35h30M55 45h30M55 55h30M55 65h30M55 75h30"/></g><path fill="#f4c542" d="m28.44 66.13 48.296-12.941 1.294 4.83-48.296 12.94z"/><path d="m76.7 53.2 1.3 4.7 5-3.9z"/><text text-anchor="middle" fill="#e95c31" font-weight="bold" font-size="25" font-family="Arial, sans-serif" y="95" x="75%">MD</text></svg>